<svg width="294" height="72" viewBox="0 0 294 72" fill="none" xmlns="http://www.w3.org/2000/svg">
<g clip-path="url(#clip0_3_87)">
<rect width="72" height="72" rx="24" fill="url(#paint0_linear_3_87)"/>
<rect x="8.75626" y="42.1368" width="54.2032" height="44.1747" fill="url(#paint1_linear_3_87)"/>
<rect x="8.75626" y="42.1368" width="54.2032" height="44.1747" stroke="black"/>
<g filter="url(#filter0_d_3_87)">
<path d="M52.477 33.3424C52.3494 32.6481 52.8883 32.0262 53.5386 32.1171L102.497 38.9569C103.275 39.0657 103.616 40.0794 103.082 40.6959L63.7247 86.1199C63.1905 86.7365 62.2306 86.4371 62.0779 85.6062L52.477 33.3424Z" fill="url(#paint2_linear_3_87)"/>
</g>
<g filter="url(#filter1_d_3_87)">
<path d="M19.5231 33.3934C19.6506 32.6992 19.1117 32.0773 18.4614 32.1681L-30.4965 39.008C-31.2748 39.1167 -31.6159 40.1304 -31.0817 40.747L8.27529 86.171C8.80951 86.7876 9.76945 86.4881 9.92208 85.6573L19.5231 33.3934Z" fill="url(#paint3_linear_3_87)"/>
</g>
<path d="M36 22.9271C35.7148 22.927 35.4346 22.8655 35.1875 22.7487L20.5625 15.819C19.7851 15.4506 19.5189 14.6348 19.9679 13.997C20.1105 13.7944 20.3156 13.6261 20.5625 13.5091L35.1875 6.58464C35.6907 6.34765 36.3093 6.34765 36.8125 6.58464L51.4375 13.5091C52.2149 13.8775 52.4811 14.6933 52.0321 15.3312C51.8895 15.5337 51.6844 15.702 51.4375 15.819L36.8125 22.7487C36.5654 22.8655 36.2852 22.927 36 22.9271Z" fill="#D8D8FF"/>
<path d="M51.4375 18.8425L48.2458 17.3313L36.8125 22.7487C36.3096 22.9865 35.6904 22.9865 35.1875 22.7487L23.7542 17.3313L20.5625 18.8425C19.7851 19.2109 19.5189 20.0266 19.9679 20.6645C20.1105 20.8671 20.3156 21.0353 20.5625 21.1523L35.1875 28.082C35.6904 28.3199 36.3096 28.3199 36.8125 28.082L51.4375 21.1523C52.2149 20.7839 52.4811 19.9682 52.0321 19.3303C51.8895 19.1277 51.6844 18.9595 51.4375 18.8425Z" fill="#B2B1FF"/>
</g>
<path d="M105.312 53V19.4H118.56C121.216 19.4 123.376 19.848 125.04 20.744C126.736 21.608 127.984 22.792 128.784 24.296C129.584 25.768 129.984 27.448 129.984 29.336C129.984 31.032 129.616 32.6 128.88 34.04C128.144 35.448 127.024 36.6 125.52 37.496C127.056 38.264 128.16 39.352 128.832 40.76C129.536 42.136 129.952 43.784 130.08 45.704L130.464 53H126.192L125.808 46.088C125.712 44.488 125.44 43.192 124.992 42.2C124.544 41.208 123.792 40.488 122.736 40.04C121.712 39.56 120.272 39.32 118.416 39.32H109.632V53H105.312ZM109.632 35.816H118.272C120.8 35.816 122.64 35.224 123.792 34.04C124.976 32.824 125.568 31.256 125.568 29.336C125.568 27.384 124.992 25.848 123.84 24.728C122.72 23.576 120.864 23 118.272 23H109.632V35.816ZM142.698 53.576C140.778 53.576 139.162 53.256 137.85 52.616C136.538 51.944 135.546 51.064 134.874 49.976C134.234 48.856 133.914 47.672 133.914 46.424C133.914 43.832 134.842 41.864 136.698 40.52C138.586 39.144 141.05 38.456 144.09 38.456C145.434 38.456 146.65 38.552 147.738 38.744C148.826 38.936 149.722 39.16 150.426 39.416V38.36C150.426 36.312 149.882 34.776 148.794 33.752C147.738 32.696 146.314 32.168 144.522 32.168C143.05 32.168 141.77 32.472 140.682 33.08C139.626 33.688 138.97 34.712 138.714 36.152H134.394C134.586 34.456 135.162 33.048 136.122 31.928C137.114 30.808 138.346 29.976 139.818 29.432C141.29 28.888 142.858 28.616 144.522 28.616C147.914 28.616 150.458 29.512 152.154 31.304C153.882 33.064 154.746 35.416 154.746 38.36V45.512C154.746 46.664 154.81 47.512 154.938 48.056C155.098 48.6 155.354 48.936 155.706 49.064C156.058 49.192 156.538 49.256 157.146 49.256H157.482V53H156.57C155.002 53 153.722 52.744 152.73 52.232C151.738 51.72 151.066 50.696 150.714 49.16C149.978 50.408 148.954 51.464 147.642 52.328C146.362 53.16 144.714 53.576 142.698 53.576ZM143.37 50.072C144.778 50.072 145.978 49.72 146.97 49.016C147.994 48.312 148.794 47.384 149.37 46.232C149.946 45.08 150.266 43.864 150.33 42.584C149.594 42.36 148.698 42.168 147.642 42.008C146.586 41.816 145.53 41.72 144.474 41.72C142.298 41.72 140.714 42.152 139.722 43.016C138.762 43.848 138.282 44.904 138.282 46.184C138.282 47.304 138.714 48.232 139.578 48.968C140.474 49.704 141.738 50.072 143.37 50.072ZM173.451 64.136C171.371 64.136 169.467 63.768 167.739 63.032C166.011 62.328 164.555 61.288 163.371 59.912C162.219 58.568 161.483 56.92 161.163 54.968H165.435C165.883 56.568 166.827 57.864 168.267 58.856C169.739 59.88 171.451 60.392 173.403 60.392C174.939 60.392 176.315 60.056 177.531 59.384C178.747 58.744 179.707 57.768 180.411 56.456C181.147 55.176 181.515 53.592 181.515 51.704V48.296C181.003 49.16 180.315 49.992 179.451 50.792C178.619 51.56 177.611 52.2 176.427 52.712C175.275 53.192 173.931 53.432 172.395 53.432C170.155 53.432 168.123 52.888 166.299 51.8C164.475 50.712 163.035 49.24 161.979 47.384C160.923 45.496 160.395 43.368 160.395 41C160.395 38.6 160.923 36.472 161.979 34.616C163.035 32.76 164.475 31.304 166.299 30.248C168.123 29.16 170.155 28.616 172.395 28.616C174.475 28.616 176.299 29.08 177.867 30.008C179.467 30.936 180.683 32.04 181.515 33.32V29.192H185.835V51.56C185.835 54.184 185.291 56.424 184.203 58.28C183.147 60.168 181.675 61.608 179.787 62.6C177.931 63.624 175.819 64.136 173.451 64.136ZM173.067 49.688C174.667 49.688 176.091 49.32 177.339 48.584C178.587 47.848 179.563 46.824 180.267 45.512C180.971 44.2 181.323 42.696 181.323 41C181.323 39.272 180.971 37.768 180.267 36.488C179.563 35.176 178.587 34.168 177.339 33.464C176.091 32.728 174.667 32.36 173.067 32.36C171.499 32.36 170.091 32.728 168.843 33.464C167.595 34.168 166.603 35.176 165.867 36.488C165.163 37.768 164.811 39.272 164.811 41C164.811 42.664 165.163 44.168 165.867 45.512C166.603 46.824 167.595 47.848 168.843 48.584C170.091 49.32 171.499 49.688 173.067 49.688ZM191.937 53V19.4H203.169C205.793 19.4 207.953 19.832 209.649 20.696C211.377 21.56 212.657 22.744 213.489 24.248C214.321 25.72 214.737 27.4 214.737 29.288C214.737 31.08 214.321 32.728 213.489 34.232C212.689 35.704 211.441 36.888 209.745 37.784C208.049 38.68 205.857 39.128 203.169 39.128H196.257V53H191.937ZM196.257 35.528H203.073C205.665 35.528 207.521 34.968 208.641 33.848C209.761 32.696 210.321 31.176 210.321 29.288C210.321 27.272 209.761 25.72 208.641 24.632C207.521 23.544 205.665 23 203.073 23H196.257V35.528ZM225.339 53.576C223.419 53.576 221.803 53.256 220.491 52.616C219.179 51.944 218.187 51.064 217.515 49.976C216.875 48.856 216.555 47.672 216.555 46.424C216.555 43.832 217.483 41.864 219.339 40.52C221.227 39.144 223.691 38.456 226.731 38.456C228.075 38.456 229.291 38.552 230.379 38.744C231.467 38.936 232.363 39.16 233.067 39.416V38.36C233.067 36.312 232.523 34.776 231.435 33.752C230.379 32.696 228.955 32.168 227.163 32.168C225.691 32.168 224.411 32.472 223.323 33.08C222.267 33.688 221.611 34.712 221.355 36.152H217.035C217.227 34.456 217.803 33.048 218.763 31.928C219.755 30.808 220.987 29.976 222.459 29.432C223.931 28.888 225.499 28.616 227.163 28.616C230.555 28.616 233.099 29.512 234.795 31.304C236.523 33.064 237.387 35.416 237.387 38.36V45.512C237.387 46.664 237.451 47.512 237.579 48.056C237.739 48.6 237.995 48.936 238.347 49.064C238.699 49.192 239.179 49.256 239.787 49.256H240.123V53H239.211C237.643 53 236.363 52.744 235.371 52.232C234.379 51.72 233.707 50.696 233.355 49.16C232.619 50.408 231.595 51.464 230.283 52.328C229.003 53.16 227.355 53.576 225.339 53.576ZM226.011 50.072C227.419 50.072 228.619 49.72 229.611 49.016C230.635 48.312 231.435 47.384 232.011 46.232C232.587 45.08 232.907 43.864 232.971 42.584C232.235 42.36 231.339 42.168 230.283 42.008C229.227 41.816 228.171 41.72 227.115 41.72C224.939 41.72 223.355 42.152 222.363 43.016C221.403 43.848 220.923 44.904 220.923 46.184C220.923 47.304 221.355 48.232 222.219 48.968C223.115 49.704 224.379 50.072 226.011 50.072ZM254.754 53.576C252.482 53.576 250.434 53.048 248.61 51.992C246.818 50.936 245.394 49.48 244.338 47.624C243.282 45.736 242.754 43.56 242.754 41.096C242.754 38.6 243.282 36.424 244.338 34.568C245.394 32.712 246.818 31.256 248.61 30.2C250.434 29.144 252.482 28.616 254.754 28.616C257.634 28.616 260.034 29.368 261.954 30.872C263.906 32.344 265.154 34.328 265.698 36.824H261.234C260.914 35.416 260.146 34.312 258.93 33.512C257.746 32.712 256.354 32.312 254.754 32.312C253.442 32.312 252.194 32.648 251.01 33.32C249.858 33.992 248.93 34.984 248.226 36.296C247.522 37.576 247.17 39.176 247.17 41.096C247.17 42.984 247.522 44.584 248.226 45.896C248.93 47.208 249.858 48.2 251.01 48.872C252.194 49.544 253.442 49.88 254.754 49.88C256.354 49.88 257.746 49.496 258.93 48.728C260.146 47.928 260.914 46.808 261.234 45.368H265.698C265.186 47.8 263.954 49.784 262.002 51.32C260.05 52.824 257.634 53.576 254.754 53.576ZM274.091 45.032L272.843 41.384L285.227 29.192H290.507L274.091 45.032ZM270.299 53V18.44H274.618V53H270.299ZM286.379 53L276.539 40.328L279.275 37.496L291.851 53H286.379Z" fill="#4338CA"/>
<defs>
<filter id="filter0_d_3_87" x="44.4581" y="32.1082" width="58.8822" height="62.3395" filterUnits="userSpaceOnUse" color-interpolation-filters="sRGB">
<feFlood flood-opacity="0" result="BackgroundImageFix"/>
<feColorMatrix in="SourceAlpha" type="matrix" values="0 0 0 0 0 0 0 0 0 0 0 0 0 0 0 0 0 0 127 0" result="hardAlpha"/>
<feOffset dx="-4" dy="4"/>
<feGaussianBlur stdDeviation="2"/>
<feComposite in2="hardAlpha" operator="out"/>
<feColorMatrix type="matrix" values="0 0 0 0 0 0 0 0 0 0 0 0 0 0 0 0 0 0 0.25 0"/>
<feBlend mode="normal" in2="BackgroundImageFix" result="effect1_dropShadow_3_87"/>
<feBlend mode="normal" in="SourceGraphic" in2="effect1_dropShadow_3_87" result="shape"/>
</filter>
<filter id="filter1_d_3_87" x="-31.3403" y="32.1593" width="58.8822" height="62.3395" filterUnits="userSpaceOnUse" color-interpolation-filters="sRGB">
<feFlood flood-opacity="0" result="BackgroundImageFix"/>
<feColorMatrix in="SourceAlpha" type="matrix" values="0 0 0 0 0 0 0 0 0 0 0 0 0 0 0 0 0 0 127 0" result="hardAlpha"/>
<feOffset dx="4" dy="4"/>
<feGaussianBlur stdDeviation="2"/>
<feComposite in2="hardAlpha" operator="out"/>
<feColorMatrix type="matrix" values="0 0 0 0 0 0 0 0 0 0 0 0 0 0 0 0 0 0 0.25 0"/>
<feBlend mode="normal" in2="BackgroundImageFix" result="effect1_dropShadow_3_87"/>
<feBlend mode="normal" in="SourceGraphic" in2="effect1_dropShadow_3_87" result="shape"/>
</filter>
<linearGradient id="paint0_linear_3_87" x1="36" y1="0" x2="36" y2="72" gradientUnits="userSpaceOnUse">
<stop stop-color="#4338CA"/>
<stop offset="1" stop-color="#211C64"/>
</linearGradient>
<linearGradient id="paint1_linear_3_87" x1="35.8578" y1="42.1368" x2="35.8578" y2="86.3115" gradientUnits="userSpaceOnUse">
<stop stop-color="#9D96FF"/>
<stop offset="1" stop-color="#D9D9D9"/>
</linearGradient>
<linearGradient id="paint2_linear_3_87" x1="52.218" y1="31.9326" x2="96.7383" y2="70.5065" gradientUnits="userSpaceOnUse">
<stop stop-color="#9D96FF"/>
<stop offset="1" stop-color="#D9D9D9"/>
</linearGradient>
<linearGradient id="paint3_linear_3_87" x1="19.782" y1="31.9836" x2="-24.7383" y2="70.5576" gradientUnits="userSpaceOnUse">
<stop stop-color="#9D96FF"/>
<stop offset="1" stop-color="#D9D9D9"/>
</linearGradient>
<clipPath id="clip0_3_87">
<rect width="72" height="72" rx="24" fill="white"/>
</clipPath>
</defs>
</svg>
