<svg width="72" height="72" viewBox="0 0 72 72" fill="none" xmlns="http://www.w3.org/2000/svg">
<g clip-path="url(#clip0_3_89)">
<rect width="72" height="72" rx="24" fill="url(#paint0_linear_3_89)"/>
<rect x="8.75626" y="42.1368" width="54.2032" height="44.1747" fill="url(#paint1_linear_3_89)"/>
<rect x="8.75626" y="42.1368" width="54.2032" height="44.1747" stroke="black"/>
<g filter="url(#filter0_d_3_89)">
<path d="M52.477 33.3424C52.3494 32.6481 52.8883 32.0262 53.5386 32.1171L102.497 38.9569C103.275 39.0657 103.616 40.0794 103.082 40.6959L63.7247 86.1199C63.1905 86.7365 62.2306 86.4371 62.0779 85.6062L52.477 33.3424Z" fill="url(#paint2_linear_3_89)"/>
</g>
<g filter="url(#filter1_d_3_89)">
<path d="M19.5231 33.3934C19.6506 32.6992 19.1117 32.0773 18.4614 32.1681L-30.4965 39.008C-31.2748 39.1167 -31.6159 40.1304 -31.0817 40.747L8.27529 86.171C8.80951 86.7876 9.76945 86.4881 9.92208 85.6573L19.5231 33.3934Z" fill="url(#paint3_linear_3_89)"/>
</g>
<path d="M36 22.9271C35.7148 22.927 35.4346 22.8655 35.1875 22.7487L20.5625 15.819C19.7851 15.4506 19.5189 14.6348 19.9679 13.997C20.1105 13.7944 20.3156 13.6261 20.5625 13.5091L35.1875 6.58465C35.6907 6.34766 36.3093 6.34766 36.8125 6.58465L51.4375 13.5091C52.2149 13.8776 52.4811 14.6933 52.0321 15.3312C51.8895 15.5338 51.6844 15.702 51.4375 15.819L36.8125 22.7487C36.5654 22.8655 36.2852 22.927 36 22.9271Z" fill="#D8D8FF"/>
<path d="M51.4375 18.8425L48.2458 17.3313L36.8125 22.7487C36.3096 22.9866 35.6904 22.9866 35.1875 22.7487L23.7542 17.3313L20.5625 18.8425C19.7851 19.2109 19.5189 20.0266 19.9679 20.6645C20.1105 20.8671 20.3156 21.0353 20.5625 21.1524L35.1875 28.082C35.6904 28.3199 36.3096 28.3199 36.8125 28.082L51.4375 21.1524C52.2149 20.7839 52.4811 19.9682 52.0321 19.3303C51.8895 19.1277 51.6844 18.9595 51.4375 18.8425Z" fill="#B2B1FF"/>
</g>
<defs>
<filter id="filter0_d_3_89" x="44.4581" y="32.1082" width="58.8822" height="62.3395" filterUnits="userSpaceOnUse" color-interpolation-filters="sRGB">
<feFlood flood-opacity="0" result="BackgroundImageFix"/>
<feColorMatrix in="SourceAlpha" type="matrix" values="0 0 0 0 0 0 0 0 0 0 0 0 0 0 0 0 0 0 127 0" result="hardAlpha"/>
<feOffset dx="-4" dy="4"/>
<feGaussianBlur stdDeviation="2"/>
<feComposite in2="hardAlpha" operator="out"/>
<feColorMatrix type="matrix" values="0 0 0 0 0 0 0 0 0 0 0 0 0 0 0 0 0 0 0.25 0"/>
<feBlend mode="normal" in2="BackgroundImageFix" result="effect1_dropShadow_3_89"/>
<feBlend mode="normal" in="SourceGraphic" in2="effect1_dropShadow_3_89" result="shape"/>
</filter>
<filter id="filter1_d_3_89" x="-31.3403" y="32.1593" width="58.8822" height="62.3395" filterUnits="userSpaceOnUse" color-interpolation-filters="sRGB">
<feFlood flood-opacity="0" result="BackgroundImageFix"/>
<feColorMatrix in="SourceAlpha" type="matrix" values="0 0 0 0 0 0 0 0 0 0 0 0 0 0 0 0 0 0 127 0" result="hardAlpha"/>
<feOffset dx="4" dy="4"/>
<feGaussianBlur stdDeviation="2"/>
<feComposite in2="hardAlpha" operator="out"/>
<feColorMatrix type="matrix" values="0 0 0 0 0 0 0 0 0 0 0 0 0 0 0 0 0 0 0.25 0"/>
<feBlend mode="normal" in2="BackgroundImageFix" result="effect1_dropShadow_3_89"/>
<feBlend mode="normal" in="SourceGraphic" in2="effect1_dropShadow_3_89" result="shape"/>
</filter>
<linearGradient id="paint0_linear_3_89" x1="36" y1="0" x2="36" y2="72" gradientUnits="userSpaceOnUse">
<stop stop-color="#4338CA"/>
<stop offset="1" stop-color="#211C64"/>
</linearGradient>
<linearGradient id="paint1_linear_3_89" x1="35.8578" y1="42.1368" x2="35.8578" y2="86.3115" gradientUnits="userSpaceOnUse">
<stop stop-color="#9D96FF"/>
<stop offset="1" stop-color="#D9D9D9"/>
</linearGradient>
<linearGradient id="paint2_linear_3_89" x1="52.218" y1="31.9326" x2="96.7383" y2="70.5065" gradientUnits="userSpaceOnUse">
<stop stop-color="#9D96FF"/>
<stop offset="1" stop-color="#D9D9D9"/>
</linearGradient>
<linearGradient id="paint3_linear_3_89" x1="19.782" y1="31.9836" x2="-24.7383" y2="70.5576" gradientUnits="userSpaceOnUse">
<stop stop-color="#9D96FF"/>
<stop offset="1" stop-color="#D9D9D9"/>
</linearGradient>
<clipPath id="clip0_3_89">
<rect width="72" height="72" rx="24" fill="white"/>
</clipPath>
</defs>
</svg>
